<mxfile host="drawio-plugin" modified="2022-05-05T14:21:50.153Z" agent="5.0 (Macintosh; Intel Mac OS X 10_15_7) AppleWebKit/537.36 (KHTML, like Gecko) Chrome/97.0.4692.45 Safari/537.36" etag="fqtmQe6f2xY0yN-yzUrn" version="15.5.4" type="embed"><diagram id="Gdi1wRRM5Co0MrZpTZnq" name="Page-1"><mxGraphModel dx="369" dy="340" grid="1" gridSize="10" guides="1" tooltips="1" connect="1" arrows="1" fold="1" page="1" pageScale="1" pageWidth="827" pageHeight="1169" background="none" math="0" shadow="0"><root><mxCell id="0"/><mxCell id="1" parent="0"/><mxCell id="hJOEcCQmY8A-I3rsuDbE-10" value="" style="curved=1;endArrow=none;html=1;rounded=0;entryX=1;entryY=0.5;entryDx=0;entryDy=0;entryPerimeter=0;exitX=0;exitY=0;exitDx=0;exitDy=52.5;exitPerimeter=0;endFill=0;" parent="1" edge="1"><mxGeometry width="50" height="50" relative="1" as="geometry"><mxPoint x="370" y="267.5" as="sourcePoint"/><mxPoint x="310" y="250" as="targetPoint"/><Array as="points"><mxPoint x="380" y="263"/><mxPoint x="330" y="250"/><mxPoint x="300" y="260"/></Array></mxGeometry></mxCell><mxCell id="hJOEcCQmY8A-I3rsuDbE-11" value="" style="curved=1;endArrow=none;html=1;rounded=0;entryX=1;entryY=0.5;entryDx=0;entryDy=0;entryPerimeter=0;exitX=0;exitY=0;exitDx=0;exitDy=52.5;exitPerimeter=0;endFill=0;" parent="1" edge="1"><mxGeometry width="50" height="50" relative="1" as="geometry"><mxPoint x="370" y="258.75" as="sourcePoint"/><mxPoint x="310" y="241.25" as="targetPoint"/><Array as="points"><mxPoint x="380" y="254.25"/><mxPoint x="330" y="241.25"/><mxPoint x="300" y="251.25"/></Array></mxGeometry></mxCell><mxCell id="hJOEcCQmY8A-I3rsuDbE-12" value="" style="curved=1;endArrow=none;html=1;rounded=0;entryX=1;entryY=0.5;entryDx=0;entryDy=0;entryPerimeter=0;exitX=0;exitY=0;exitDx=0;exitDy=52.5;exitPerimeter=0;endFill=0;" parent="1" edge="1"><mxGeometry width="50" height="50" relative="1" as="geometry"><mxPoint x="370" y="247.5" as="sourcePoint"/><mxPoint x="310" y="230" as="targetPoint"/><Array as="points"><mxPoint x="380" y="243"/><mxPoint x="330" y="230"/><mxPoint x="300" y="240"/></Array></mxGeometry></mxCell><mxCell id="hJOEcCQmY8A-I3rsuDbE-13" value="" style="curved=1;endArrow=none;html=1;rounded=0;entryX=0.994;entryY=0.843;entryDx=0;entryDy=0;entryPerimeter=0;exitX=0;exitY=0;exitDx=0;exitDy=52.5;exitPerimeter=0;endFill=0;" parent="1" edge="1"><mxGeometry width="50" height="50" relative="1" as="geometry"><mxPoint x="370" y="237.5" as="sourcePoint"/><mxPoint x="310.36" y="222.56" as="targetPoint"/><Array as="points"><mxPoint x="380" y="233"/><mxPoint x="330" y="220"/><mxPoint x="300" y="230"/></Array></mxGeometry></mxCell><mxCell id="hJOEcCQmY8A-I3rsuDbE-15" value="" style="rounded=0;whiteSpace=wrap;html=1;direction=south;fillColor=none;fontColor=#333333;strokeColor=#666666;" parent="1" vertex="1"><mxGeometry x="310" y="200" width="60" height="70" as="geometry"/></mxCell><mxCell id="hJOEcCQmY8A-I3rsuDbE-19" value="" style="verticalLabelPosition=bottom;verticalAlign=top;html=1;shape=mxgraph.basic.patternFillRect;fillStyle=diag;step=5;fillStrokeWidth=0.2;fillStrokeColor=#000000;gradientDirection=north;" parent="1" vertex="1"><mxGeometry x="280" y="190" width="120" height="10" as="geometry"/></mxCell><mxCell id="hJOEcCQmY8A-I3rsuDbE-20" value="" style="rounded=0;whiteSpace=wrap;html=1;fillColor=none;gradientColor=#000000;gradientDirection=north;" parent="1" vertex="1"><mxGeometry x="300" y="320" width="80" height="20" as="geometry"/></mxCell><mxCell id="hJOEcCQmY8A-I3rsuDbE-21" value="" style="endArrow=classic;html=1;rounded=0;" parent="1" edge="1"><mxGeometry width="50" height="50" relative="1" as="geometry"><mxPoint x="339.83" y="330" as="sourcePoint"/><mxPoint x="339.83" y="370" as="targetPoint"/><Array as="points"><mxPoint x="339.83" y="340"/></Array></mxGeometry></mxCell><mxCell id="hJOEcCQmY8A-I3rsuDbE-23" value="" style="endArrow=classic;html=1;rounded=0;entryX=1;entryY=0.5;entryDx=0;entryDy=0;entryPerimeter=0;" parent="1" target="hJOEcCQmY8A-I3rsuDbE-15" edge="1"><mxGeometry width="50" height="50" relative="1" as="geometry"><mxPoint x="340" y="330" as="sourcePoint"/><mxPoint x="340" y="280" as="targetPoint"/><Array as="points"><mxPoint x="340" y="330"/><mxPoint x="340" y="320"/><mxPoint x="340" y="300"/></Array></mxGeometry></mxCell><mxCell id="hJOEcCQmY8A-I3rsuDbE-24" value="" style="endArrow=classic;startArrow=classic;html=1;rounded=0;exitX=0.129;exitY=0.05;exitDx=0;exitDy=0;entryX=1;entryY=1;entryDx=0;entryDy=0;exitPerimeter=0;" parent="1" source="hJOEcCQmY8A-I3rsuDbE-20" target="hJOEcCQmY8A-I3rsuDbE-15" edge="1"><mxGeometry width="50" height="50" relative="1" as="geometry"><mxPoint x="270" y="320" as="sourcePoint"/><mxPoint x="320" y="270" as="targetPoint"/></mxGeometry></mxCell><mxCell id="hJOEcCQmY8A-I3rsuDbE-25" value="F&lt;font style=&quot;font-size: 7px&quot;&gt;mg&lt;/font&gt;" style="text;html=1;align=center;verticalAlign=middle;resizable=0;points=[];autosize=1;strokeColor=none;fillColor=none;" parent="1" vertex="1"><mxGeometry x="350" y="340" width="30" height="20" as="geometry"/></mxCell><mxCell id="hJOEcCQmY8A-I3rsuDbE-26" value="F&lt;font style=&quot;font-size: 6px&quot;&gt;em&lt;/font&gt;" style="text;html=1;align=center;verticalAlign=middle;resizable=0;points=[];autosize=1;strokeColor=none;fillColor=none;" parent="1" vertex="1"><mxGeometry x="350" y="290" width="30" height="20" as="geometry"/></mxCell><mxCell id="hJOEcCQmY8A-I3rsuDbE-27" value="&lt;span style=&quot;font-size: 12px&quot;&gt;z(t)&lt;/span&gt;" style="text;html=1;align=center;verticalAlign=middle;resizable=0;points=[];autosize=1;strokeColor=none;fillColor=none;fontSize=7;" parent="1" vertex="1"><mxGeometry x="285" y="280" width="30" height="20" as="geometry"/></mxCell><mxCell id="hJOEcCQmY8A-I3rsuDbE-28" value="z&lt;font style=&quot;font-size: 7px&quot;&gt;0&lt;/font&gt;" style="text;html=1;align=center;verticalAlign=middle;resizable=0;points=[];autosize=1;strokeColor=none;fillColor=none;fontSize=12;" parent="1" vertex="1"><mxGeometry x="385" y="320" width="30" height="20" as="geometry"/></mxCell><mxCell id="hJOEcCQmY8A-I3rsuDbE-34" style="edgeStyle=orthogonalEdgeStyle;rounded=0;orthogonalLoop=1;jettySize=auto;html=1;exitX=1;exitY=1;exitDx=0;exitDy=0;exitPerimeter=0;fontSize=7;endArrow=none;endFill=0;entryX=0;entryY=0.5;entryDx=0;entryDy=0;entryPerimeter=0;" parent="1" source="hJOEcCQmY8A-I3rsuDbE-29" target="hJOEcCQmY8A-I3rsuDbE-30" edge="1"><mxGeometry relative="1" as="geometry"><mxPoint x="518" y="180" as="targetPoint"/></mxGeometry></mxCell><mxCell id="hJOEcCQmY8A-I3rsuDbE-29" value="" style="pointerEvents=1;verticalLabelPosition=bottom;shadow=0;dashed=0;align=center;html=1;verticalAlign=top;shape=mxgraph.electrical.inductors.inductor_3;fontSize=12;fillColor=none;gradientColor=#000000;gradientDirection=north;direction=north;" parent="1" vertex="1"><mxGeometry x="510" y="185" width="8" height="100" as="geometry"/></mxCell><mxCell id="hJOEcCQmY8A-I3rsuDbE-30" value="" style="pointerEvents=1;verticalLabelPosition=bottom;shadow=0;dashed=0;align=center;html=1;verticalAlign=top;shape=mxgraph.electrical.resistors.resistor_1;fontSize=12;fillColor=none;gradientColor=#000000;gradientDirection=north;" parent="1" vertex="1"><mxGeometry x="518" y="170" width="98" height="20" as="geometry"/></mxCell><mxCell id="hJOEcCQmY8A-I3rsuDbE-32" value="" style="strokeWidth=0.5;html=1;shape=mxgraph.flowchart.start_2;whiteSpace=wrap;fontSize=7;fillColor=none;gradientColor=#000000;gradientDirection=north;" parent="1" vertex="1"><mxGeometry x="710" y="177.5" width="5" height="5" as="geometry"/></mxCell><mxCell id="hJOEcCQmY8A-I3rsuDbE-35" value="" style="endArrow=none;html=1;rounded=0;fontSize=7;exitX=1;exitY=0.5;exitDx=0;exitDy=0;exitPerimeter=0;" parent="1" source="hJOEcCQmY8A-I3rsuDbE-30" edge="1"><mxGeometry width="50" height="50" relative="1" as="geometry"><mxPoint x="630" y="210" as="sourcePoint"/><mxPoint x="650" y="180" as="targetPoint"/></mxGeometry></mxCell><mxCell id="hJOEcCQmY8A-I3rsuDbE-36" value="" style="endArrow=openThin;html=1;rounded=0;fontSize=7;endFill=0;" parent="1" edge="1"><mxGeometry width="50" height="50" relative="1" as="geometry"><mxPoint x="710" y="180" as="sourcePoint"/><mxPoint x="650" y="180" as="targetPoint"/></mxGeometry></mxCell><mxCell id="hJOEcCQmY8A-I3rsuDbE-37" value="" style="endArrow=none;html=1;rounded=0;fontSize=7;exitX=0;exitY=1;exitDx=0;exitDy=0;exitPerimeter=0;" parent="1" source="hJOEcCQmY8A-I3rsuDbE-29" edge="1"><mxGeometry width="50" height="50" relative="1" as="geometry"><mxPoint x="570" y="330" as="sourcePoint"/><mxPoint x="710" y="285" as="targetPoint"/><Array as="points"><mxPoint x="710" y="285"/></Array></mxGeometry></mxCell><mxCell id="hJOEcCQmY8A-I3rsuDbE-38" value="&lt;font style=&quot;font-size: 11px&quot;&gt;i(t)&lt;/font&gt;" style="text;html=1;align=center;verticalAlign=middle;resizable=0;points=[];autosize=1;strokeColor=none;fillColor=none;fontSize=7;" parent="1" vertex="1"><mxGeometry x="645" y="160" width="30" height="10" as="geometry"/></mxCell><mxCell id="hJOEcCQmY8A-I3rsuDbE-40" value="" style="strokeWidth=0.5;html=1;shape=mxgraph.flowchart.start_2;whiteSpace=wrap;fontSize=7;fillColor=none;gradientColor=#000000;gradientDirection=north;" parent="1" vertex="1"><mxGeometry x="710" y="282.5" width="5" height="5" as="geometry"/></mxCell><mxCell id="hJOEcCQmY8A-I3rsuDbE-41" value="&lt;font style=&quot;font-size: 11px&quot;&gt;+&lt;/font&gt;" style="text;html=1;align=center;verticalAlign=middle;resizable=0;points=[];autosize=1;strokeColor=none;fillColor=none;fontSize=7;" parent="1" vertex="1"><mxGeometry x="710" y="165" width="20" height="10" as="geometry"/></mxCell><mxCell id="hJOEcCQmY8A-I3rsuDbE-42" value="&lt;span style=&quot;font-size: 11px&quot;&gt;_&lt;/span&gt;" style="text;html=1;align=center;verticalAlign=middle;resizable=0;points=[];autosize=1;strokeColor=none;fillColor=none;fontSize=7;" parent="1" vertex="1"><mxGeometry x="710" y="285" width="20" height="10" as="geometry"/></mxCell><mxCell id="hJOEcCQmY8A-I3rsuDbE-43" value="u(t)" style="text;html=1;align=center;verticalAlign=middle;resizable=0;points=[];autosize=1;strokeColor=none;fillColor=none;fontSize=11;" parent="1" vertex="1"><mxGeometry x="715" y="220" width="30" height="20" as="geometry"/></mxCell><mxCell id="hJOEcCQmY8A-I3rsuDbE-44" value="R" style="text;html=1;align=center;verticalAlign=middle;resizable=0;points=[];autosize=1;strokeColor=none;fillColor=none;fontSize=11;" parent="1" vertex="1"><mxGeometry x="550" y="140" width="20" height="20" as="geometry"/></mxCell><mxCell id="hJOEcCQmY8A-I3rsuDbE-45" value="L" style="text;html=1;align=center;verticalAlign=middle;resizable=0;points=[];autosize=1;strokeColor=none;fillColor=none;fontSize=11;" parent="1" vertex="1"><mxGeometry x="480" y="220" width="20" height="20" as="geometry"/></mxCell><mxCell id="d11YgbMuLY9UXbhdKkSf-13" style="edgeStyle=orthogonalEdgeStyle;rounded=0;jumpSize=6;orthogonalLoop=1;jettySize=auto;html=1;endArrow=oval;endFill=1;endSize=6;" parent="1" source="d11YgbMuLY9UXbhdKkSf-1" edge="1"><mxGeometry relative="1" as="geometry"><mxPoint x="270" y="585" as="targetPoint"/></mxGeometry></mxCell><mxCell id="d11YgbMuLY9UXbhdKkSf-15" style="edgeStyle=orthogonalEdgeStyle;rounded=0;jumpSize=6;orthogonalLoop=1;jettySize=auto;html=1;exitX=1;exitY=0.5;exitDx=0;exitDy=0;exitPerimeter=0;endArrow=oval;endFill=1;endSize=6;" parent="1" source="d11YgbMuLY9UXbhdKkSf-1" edge="1"><mxGeometry relative="1" as="geometry"><mxPoint x="460" y="615" as="targetPoint"/></mxGeometry></mxCell><mxCell id="d11YgbMuLY9UXbhdKkSf-1" value="" style="pointerEvents=1;verticalLabelPosition=bottom;shadow=0;dashed=0;align=center;html=1;verticalAlign=top;shape=mxgraph.electrical.resistors.resistor_1;fillColor=none;" parent="1" vertex="1"><mxGeometry x="300" y="470" width="100" height="20" as="geometry"/></mxCell><mxCell id="d11YgbMuLY9UXbhdKkSf-10" style="edgeStyle=orthogonalEdgeStyle;rounded=0;orthogonalLoop=1;jettySize=auto;html=1;exitX=1;exitY=0.5;exitDx=0;exitDy=0;exitPerimeter=0;entryX=0;entryY=0.165;entryDx=0;entryDy=0;entryPerimeter=0;endArrow=none;endFill=0;" parent="1" source="d11YgbMuLY9UXbhdKkSf-2" target="d11YgbMuLY9UXbhdKkSf-5" edge="1"><mxGeometry relative="1" as="geometry"/></mxCell><mxCell id="d11YgbMuLY9UXbhdKkSf-18" style="edgeStyle=orthogonalEdgeStyle;rounded=0;jumpSize=6;orthogonalLoop=1;jettySize=auto;html=1;exitX=0;exitY=0.5;exitDx=0;exitDy=0;exitPerimeter=0;endArrow=none;endFill=0;endSize=6;" parent="1" source="d11YgbMuLY9UXbhdKkSf-2" edge="1"><mxGeometry relative="1" as="geometry"><mxPoint x="120" y="584.8095238095237" as="targetPoint"/></mxGeometry></mxCell><mxCell id="d11YgbMuLY9UXbhdKkSf-2" value="" style="pointerEvents=1;verticalLabelPosition=bottom;shadow=0;dashed=0;align=center;html=1;verticalAlign=top;shape=mxgraph.electrical.resistors.resistor_1;fillColor=none;" parent="1" vertex="1"><mxGeometry x="163.5" y="575" width="100" height="20" as="geometry"/></mxCell><mxCell id="d11YgbMuLY9UXbhdKkSf-12" style="edgeStyle=orthogonalEdgeStyle;rounded=0;orthogonalLoop=1;jettySize=auto;html=1;exitX=0;exitY=0.5;exitDx=0;exitDy=0;exitPerimeter=0;endArrow=oval;endFill=1;endSize=6;jumpSize=6;" parent="1" source="d11YgbMuLY9UXbhdKkSf-3" edge="1"><mxGeometry relative="1" as="geometry"><mxPoint x="290" y="645" as="targetPoint"/></mxGeometry></mxCell><mxCell id="d11YgbMuLY9UXbhdKkSf-3" value="" style="pointerEvents=1;verticalLabelPosition=bottom;shadow=0;dashed=0;align=center;html=1;verticalAlign=top;shape=mxgraph.electrical.resistors.resistor_1;direction=south;fillColor=none;" parent="1" vertex="1"><mxGeometry x="280" y="700" width="20" height="100" as="geometry"/></mxCell><mxCell id="d11YgbMuLY9UXbhdKkSf-14" style="edgeStyle=orthogonalEdgeStyle;rounded=0;jumpSize=6;orthogonalLoop=1;jettySize=auto;html=1;exitX=1;exitY=0.5;exitDx=0;exitDy=0;exitPerimeter=0;endArrow=none;endFill=0;endSize=6;" parent="1" source="d11YgbMuLY9UXbhdKkSf-5" edge="1"><mxGeometry relative="1" as="geometry"><mxPoint x="500" y="614.8095238095237" as="targetPoint"/></mxGeometry></mxCell><mxCell id="d11YgbMuLY9UXbhdKkSf-23" style="edgeStyle=orthogonalEdgeStyle;rounded=0;jumpSize=6;orthogonalLoop=1;jettySize=auto;html=1;exitX=0.612;exitY=0.11;exitDx=0;exitDy=0;exitPerimeter=0;endArrow=none;endFill=0;endSize=6;" parent="1" source="d11YgbMuLY9UXbhdKkSf-5" edge="1"><mxGeometry relative="1" as="geometry"><mxPoint x="373.5238095238095" y="550" as="targetPoint"/></mxGeometry></mxCell><mxCell id="d11YgbMuLY9UXbhdKkSf-5" value="" style="verticalLabelPosition=bottom;shadow=0;dashed=0;align=center;html=1;verticalAlign=top;shape=mxgraph.electrical.abstract.operational_amp_1;fillColor=none;" parent="1" vertex="1"><mxGeometry x="313.5" y="570" width="98" height="90" as="geometry"/></mxCell><mxCell id="d11YgbMuLY9UXbhdKkSf-16" style="edgeStyle=orthogonalEdgeStyle;rounded=0;jumpSize=6;orthogonalLoop=1;jettySize=auto;html=1;exitX=0.5;exitY=0;exitDx=0;exitDy=0;exitPerimeter=0;entryX=0.612;entryY=0.89;entryDx=0;entryDy=0;entryPerimeter=0;endArrow=none;endFill=0;endSize=6;" parent="1" source="d11YgbMuLY9UXbhdKkSf-7" target="d11YgbMuLY9UXbhdKkSf-5" edge="1"><mxGeometry relative="1" as="geometry"/></mxCell><mxCell id="d11YgbMuLY9UXbhdKkSf-7" value="" style="pointerEvents=1;verticalLabelPosition=bottom;shadow=0;dashed=0;align=center;html=1;verticalAlign=top;shape=stencil(nZPNboMwEISfxtcI2W2jHCP6c+slT7Ahm2DFrJHtJs3b1/GCEkNAbSUu+w2MZwcQqvQ1tChkAb7FKgj1KqQ8gdOwNRHLqNQMXwoeCRpkstEHAhPRh7NftGPZB2ePeNa70D2nqUanA6tnZqvkpd5EsY7weqmyskQxgbbkM+VOj96gKWQhPtm4jWc0GNAx7bJ+d9PimedLpgr5PsgQyVQMVW6hOh5400f5WrhuPBJ6ubEnvCXqI1zycZgotzCa7iyW/7GojPU4eVcqYLRHohPLq3JvHc60stfG8Ccxc+qfqnv61buca27gMG/xuJNem1wtPTbqJlH+4xL4AQ==);direction=east;" parent="1" vertex="1"><mxGeometry x="351" y="690" width="45" height="30" as="geometry"/></mxCell><mxCell id="d11YgbMuLY9UXbhdKkSf-8" value="" style="pointerEvents=1;verticalLabelPosition=bottom;shadow=0;dashed=0;align=center;html=1;verticalAlign=top;shape=stencil(nZPNboMwEISfxtcI2W2jHCP6c+slT7Ahm2DFrJHtJs3b1/GCEkNAbSUu+w2MZwcQqvQ1tChkAb7FKgj1KqQ8gdOwNRHLqNQMXwoeCRpkstEHAhPRh7NftGPZB2ePeNa70D2nqUanA6tnZqvkpd5EsY7weqmyskQxgbbkM+VOj96gKWQhPtm4jWc0GNAx7bJ+d9PimedLpgr5PsgQyVQMVW6hOh5400f5WrhuPBJ6ubEnvCXqI1zycZgotzCa7iyW/7GojPU4eVcqYLRHohPLq3JvHc60stfG8Ccxc+qfqnv61buca27gMG/xuJNem1wtPTbqJlH+4xL4AQ==);direction=east;" parent="1" vertex="1"><mxGeometry x="267.5" y="800" width="45" height="30" as="geometry"/></mxCell><mxCell id="d11YgbMuLY9UXbhdKkSf-11" style="edgeStyle=orthogonalEdgeStyle;rounded=0;orthogonalLoop=1;jettySize=auto;html=1;exitX=1;exitY=0.5;exitDx=0;exitDy=0;exitPerimeter=0;entryX=0;entryY=0.835;entryDx=0;entryDy=0;entryPerimeter=0;endArrow=none;endFill=0;" parent="1" source="d11YgbMuLY9UXbhdKkSf-9" target="d11YgbMuLY9UXbhdKkSf-5" edge="1"><mxGeometry relative="1" as="geometry"/></mxCell><mxCell id="d11YgbMuLY9UXbhdKkSf-17" style="edgeStyle=orthogonalEdgeStyle;rounded=0;jumpSize=6;orthogonalLoop=1;jettySize=auto;html=1;exitX=0;exitY=0.5;exitDx=0;exitDy=0;exitPerimeter=0;endArrow=none;endFill=0;endSize=6;" parent="1" source="d11YgbMuLY9UXbhdKkSf-9" edge="1"><mxGeometry relative="1" as="geometry"><mxPoint x="120" y="644.8095238095237" as="targetPoint"/></mxGeometry></mxCell><mxCell id="d11YgbMuLY9UXbhdKkSf-9" value="" style="pointerEvents=1;verticalLabelPosition=bottom;shadow=0;dashed=0;align=center;html=1;verticalAlign=top;shape=mxgraph.electrical.resistors.resistor_1;fillColor=none;" parent="1" vertex="1"><mxGeometry x="164" y="635" width="100" height="20" as="geometry"/></mxCell><mxCell id="d11YgbMuLY9UXbhdKkSf-19" value="R1" style="text;html=1;align=center;verticalAlign=middle;resizable=0;points=[];autosize=1;strokeColor=none;fillColor=none;" parent="1" vertex="1"><mxGeometry x="198.5" y="550" width="30" height="20" as="geometry"/></mxCell><mxCell id="d11YgbMuLY9UXbhdKkSf-20" value="R2" style="text;html=1;align=center;verticalAlign=middle;resizable=0;points=[];autosize=1;strokeColor=none;fillColor=none;" parent="1" vertex="1"><mxGeometry x="335" y="450" width="30" height="20" as="geometry"/></mxCell><mxCell id="d11YgbMuLY9UXbhdKkSf-21" value="R3" style="text;html=1;align=center;verticalAlign=middle;resizable=0;points=[];autosize=1;strokeColor=none;fillColor=none;" parent="1" vertex="1"><mxGeometry x="198.5" y="610" width="30" height="20" as="geometry"/></mxCell><mxCell id="d11YgbMuLY9UXbhdKkSf-22" value="R4" style="text;html=1;align=center;verticalAlign=middle;resizable=0;points=[];autosize=1;strokeColor=none;fillColor=none;" parent="1" vertex="1"><mxGeometry x="300" y="740" width="30" height="20" as="geometry"/></mxCell><mxCell id="d11YgbMuLY9UXbhdKkSf-24" value="U&lt;font style=&quot;font-size: 8px&quot;&gt;вх1&lt;/font&gt;" style="text;html=1;align=center;verticalAlign=middle;resizable=0;points=[];autosize=1;strokeColor=none;fillColor=none;" parent="1" vertex="1"><mxGeometry x="124" y="564" width="40" height="20" as="geometry"/></mxCell><mxCell id="d11YgbMuLY9UXbhdKkSf-25" value="U&lt;font style=&quot;font-size: 8px&quot;&gt;вх2&lt;/font&gt;" style="text;html=1;align=center;verticalAlign=middle;resizable=0;points=[];autosize=1;strokeColor=none;fillColor=none;" parent="1" vertex="1"><mxGeometry x="124" y="625" width="40" height="20" as="geometry"/></mxCell><mxCell id="d11YgbMuLY9UXbhdKkSf-26" value="12В" style="text;html=1;align=center;verticalAlign=middle;resizable=0;points=[];autosize=1;strokeColor=none;fillColor=none;fontSize=8;" parent="1" vertex="1"><mxGeometry x="358.5" y="530" width="30" height="20" as="geometry"/></mxCell><mxCell id="d11YgbMuLY9UXbhdKkSf-27" value="&lt;font style=&quot;font-size: 10px&quot;&gt;+&lt;/font&gt;" style="text;html=1;align=center;verticalAlign=middle;resizable=0;points=[];autosize=1;strokeColor=none;fillColor=none;fontSize=8;" parent="1" vertex="1"><mxGeometry x="370" y="580" width="20" height="20" as="geometry"/></mxCell><mxCell id="d11YgbMuLY9UXbhdKkSf-28" value="&lt;font style=&quot;font-size: 10px&quot;&gt;_&lt;/font&gt;" style="text;html=1;align=center;verticalAlign=middle;resizable=0;points=[];autosize=1;strokeColor=none;fillColor=none;fontSize=8;" parent="1" vertex="1"><mxGeometry x="370" y="625" width="20" height="20" as="geometry"/></mxCell><mxCell id="d11YgbMuLY9UXbhdKkSf-29" value="U&lt;font style=&quot;font-size: 6px&quot;&gt;вых&lt;/font&gt;" style="text;html=1;align=center;verticalAlign=middle;resizable=0;points=[];autosize=1;strokeColor=none;fillColor=none;fontSize=10;" parent="1" vertex="1"><mxGeometry x="475" y="595" width="30" height="20" as="geometry"/></mxCell><mxCell id="ZydSeCZZG5Ix_jnq3X5m-1" value="" style="endArrow=classic;html=1;rounded=0;" parent="1" edge="1"><mxGeometry width="50" height="50" relative="1" as="geometry"><mxPoint x="260" y="270" as="sourcePoint"/><mxPoint x="260" y="410" as="targetPoint"/></mxGeometry></mxCell><mxCell id="ZydSeCZZG5Ix_jnq3X5m-2" value="z" style="text;html=1;align=center;verticalAlign=middle;resizable=0;points=[];autosize=1;strokeColor=none;fillColor=none;" parent="1" vertex="1"><mxGeometry x="237.5" y="400" width="20" height="20" as="geometry"/></mxCell><mxCell id="ZydSeCZZG5Ix_jnq3X5m-3" value="" style="endArrow=none;dashed=1;html=1;rounded=0;" parent="1" edge="1"><mxGeometry width="50" height="50" relative="1" as="geometry"><mxPoint x="210" y="270" as="sourcePoint"/><mxPoint x="460" y="270" as="targetPoint"/></mxGeometry></mxCell><mxCell id="6" value="" style="ellipse;whiteSpace=wrap;html=1;fillColor=none;" vertex="1" parent="1"><mxGeometry x="110" y="1020" width="290" height="110" as="geometry"/></mxCell><mxCell id="7" value="" style="shape=cylinder3;whiteSpace=wrap;html=1;boundedLbl=1;backgroundOutline=1;size=15;fillColor=default;" vertex="1" parent="1"><mxGeometry x="290" y="980" width="60" height="80" as="geometry"/></mxCell><mxCell id="8" value="" style="shape=cylinder3;whiteSpace=wrap;html=1;boundedLbl=1;backgroundOutline=1;size=15;fillColor=default;" vertex="1" parent="1"><mxGeometry x="184" y="980" width="60" height="80" as="geometry"/></mxCell><mxCell id="9" value="" style="shape=cylinder3;whiteSpace=wrap;html=1;boundedLbl=1;backgroundOutline=1;size=15;fillColor=default;" vertex="1" parent="1"><mxGeometry x="160" y="1030" width="60" height="80" as="geometry"/></mxCell><mxCell id="10" value="" style="shape=cylinder3;whiteSpace=wrap;html=1;boundedLbl=1;backgroundOutline=1;size=15;fillColor=default;" vertex="1" parent="1"><mxGeometry x="267.5" y="1035" width="60" height="80" as="geometry"/></mxCell><mxCell id="11" value="" style="shape=cylinder3;whiteSpace=wrap;html=1;boundedLbl=1;backgroundOutline=1;size=15;fillColor=none;" vertex="1" parent="1"><mxGeometry x="187.5" y="910" width="120" height="40" as="geometry"/></mxCell><mxCell id="12" value="" style="endArrow=classic;html=1;rounded=0;" edge="1" parent="1"><mxGeometry width="50" height="50" relative="1" as="geometry"><mxPoint x="249" y="1019" as="sourcePoint"/><mxPoint x="249" y="1151" as="targetPoint"/></mxGeometry></mxCell><mxCell id="13" value="" style="endArrow=classic;html=1;rounded=0;" edge="1" parent="1"><mxGeometry width="50" height="50" relative="1" as="geometry"><mxPoint x="250" y="1020" as="sourcePoint"/><mxPoint x="410" y="1120" as="targetPoint"/></mxGeometry></mxCell><mxCell id="14" value="" style="endArrow=classic;html=1;rounded=0;" edge="1" parent="1"><mxGeometry width="50" height="50" relative="1" as="geometry"><mxPoint x="250" y="1020" as="sourcePoint"/><mxPoint x="70" y="1090" as="targetPoint"/></mxGeometry></mxCell><mxCell id="18" value="z" style="text;html=1;align=center;verticalAlign=middle;resizable=0;points=[];autosize=1;strokeColor=none;fillColor=none;" vertex="1" parent="1"><mxGeometry x="247.5" y="1140" width="20" height="20" as="geometry"/></mxCell><mxCell id="19" value="x" style="text;html=1;align=center;verticalAlign=middle;resizable=0;points=[];autosize=1;strokeColor=none;fillColor=none;" vertex="1" parent="1"><mxGeometry x="403" y="1095" width="20" height="20" as="geometry"/></mxCell><mxCell id="20" value="y" style="text;html=1;strokeColor=none;fillColor=none;align=center;verticalAlign=middle;whiteSpace=wrap;rounded=0;" vertex="1" parent="1"><mxGeometry x="50" y="1085" width="60" height="30" as="geometry"/></mxCell><mxCell id="32" value="" style="curved=1;endArrow=none;html=1;rounded=0;entryX=1;entryY=0.5;entryDx=0;entryDy=0;entryPerimeter=0;exitX=0;exitY=0;exitDx=0;exitDy=52.5;exitPerimeter=0;endFill=0;" edge="1" parent="1"><mxGeometry width="50" height="50" relative="1" as="geometry"><mxPoint x="570" y="1007.5" as="sourcePoint"/><mxPoint x="510" y="990" as="targetPoint"/><Array as="points"><mxPoint x="580" y="1003"/><mxPoint x="530" y="990"/><mxPoint x="500" y="1000"/></Array></mxGeometry></mxCell><mxCell id="33" value="" style="curved=1;endArrow=none;html=1;rounded=0;entryX=1;entryY=0.5;entryDx=0;entryDy=0;entryPerimeter=0;exitX=0;exitY=0;exitDx=0;exitDy=52.5;exitPerimeter=0;endFill=0;" edge="1" parent="1"><mxGeometry width="50" height="50" relative="1" as="geometry"><mxPoint x="570" y="998.75" as="sourcePoint"/><mxPoint x="510" y="981.25" as="targetPoint"/><Array as="points"><mxPoint x="580" y="994.25"/><mxPoint x="530" y="981.25"/><mxPoint x="500" y="991.25"/></Array></mxGeometry></mxCell><mxCell id="34" value="" style="curved=1;endArrow=none;html=1;rounded=0;entryX=1;entryY=0.5;entryDx=0;entryDy=0;entryPerimeter=0;exitX=0;exitY=0;exitDx=0;exitDy=52.5;exitPerimeter=0;endFill=0;" edge="1" parent="1"><mxGeometry width="50" height="50" relative="1" as="geometry"><mxPoint x="570" y="987.5" as="sourcePoint"/><mxPoint x="510" y="970" as="targetPoint"/><Array as="points"><mxPoint x="580" y="983"/><mxPoint x="530" y="970"/><mxPoint x="500" y="980"/></Array></mxGeometry></mxCell><mxCell id="35" value="" style="curved=1;endArrow=none;html=1;rounded=0;entryX=0.994;entryY=0.843;entryDx=0;entryDy=0;entryPerimeter=0;exitX=0;exitY=0;exitDx=0;exitDy=52.5;exitPerimeter=0;endFill=0;" edge="1" parent="1"><mxGeometry width="50" height="50" relative="1" as="geometry"><mxPoint x="570" y="977.5" as="sourcePoint"/><mxPoint x="510.36" y="962.56" as="targetPoint"/><Array as="points"><mxPoint x="580" y="973"/><mxPoint x="530" y="960"/><mxPoint x="500" y="970"/></Array></mxGeometry></mxCell><mxCell id="36" value="" style="rounded=0;whiteSpace=wrap;html=1;direction=south;fillColor=none;fontColor=#333333;strokeColor=#666666;" vertex="1" parent="1"><mxGeometry x="510" y="940" width="60" height="70" as="geometry"/></mxCell><mxCell id="42" value="" style="curved=1;endArrow=none;html=1;rounded=0;entryX=1;entryY=0.5;entryDx=0;entryDy=0;entryPerimeter=0;exitX=0;exitY=0;exitDx=0;exitDy=52.5;exitPerimeter=0;endFill=0;" edge="1" parent="1"><mxGeometry width="50" height="50" relative="1" as="geometry"><mxPoint x="740" y="1007.5" as="sourcePoint"/><mxPoint x="680" y="990" as="targetPoint"/><Array as="points"><mxPoint x="750" y="1003"/><mxPoint x="700" y="990"/><mxPoint x="670" y="1000"/></Array></mxGeometry></mxCell><mxCell id="43" value="" style="curved=1;endArrow=none;html=1;rounded=0;entryX=1;entryY=0.5;entryDx=0;entryDy=0;entryPerimeter=0;exitX=0;exitY=0;exitDx=0;exitDy=52.5;exitPerimeter=0;endFill=0;" edge="1" parent="1"><mxGeometry width="50" height="50" relative="1" as="geometry"><mxPoint x="740" y="998.75" as="sourcePoint"/><mxPoint x="680" y="981.25" as="targetPoint"/><Array as="points"><mxPoint x="750" y="994.25"/><mxPoint x="700" y="981.25"/><mxPoint x="670" y="991.25"/></Array></mxGeometry></mxCell><mxCell id="44" value="" style="curved=1;endArrow=none;html=1;rounded=0;entryX=1;entryY=0.5;entryDx=0;entryDy=0;entryPerimeter=0;exitX=0;exitY=0;exitDx=0;exitDy=52.5;exitPerimeter=0;endFill=0;" edge="1" parent="1"><mxGeometry width="50" height="50" relative="1" as="geometry"><mxPoint x="740" y="987.5" as="sourcePoint"/><mxPoint x="680" y="970" as="targetPoint"/><Array as="points"><mxPoint x="750" y="983"/><mxPoint x="700" y="970"/><mxPoint x="670" y="980"/></Array></mxGeometry></mxCell><mxCell id="45" value="" style="curved=1;endArrow=none;html=1;rounded=0;entryX=0.994;entryY=0.843;entryDx=0;entryDy=0;entryPerimeter=0;exitX=0;exitY=0;exitDx=0;exitDy=52.5;exitPerimeter=0;endFill=0;" edge="1" parent="1"><mxGeometry width="50" height="50" relative="1" as="geometry"><mxPoint x="740" y="977.5" as="sourcePoint"/><mxPoint x="680.36" y="962.56" as="targetPoint"/><Array as="points"><mxPoint x="750" y="973"/><mxPoint x="700" y="960"/><mxPoint x="670" y="970"/></Array></mxGeometry></mxCell><mxCell id="46" value="" style="rounded=0;whiteSpace=wrap;html=1;direction=south;fillColor=none;fontColor=#333333;strokeColor=#666666;" vertex="1" parent="1"><mxGeometry x="680" y="940" width="60" height="70" as="geometry"/></mxCell><mxCell id="48" value="" style="verticalLabelPosition=bottom;verticalAlign=top;html=1;shape=mxgraph.basic.patternFillRect;fillStyle=diag;step=5;fillStrokeWidth=0.2;fillStrokeColor=#000000;gradientDirection=north;" vertex="1" parent="1"><mxGeometry x="500" y="1010" width="250" height="10" as="geometry"/></mxCell><mxCell id="50" value="" style="rounded=0;whiteSpace=wrap;html=1;fillColor=default;" vertex="1" parent="1"><mxGeometry x="565" y="840" width="120" height="20" as="geometry"/></mxCell><mxCell id="51" value="" style="endArrow=classic;html=1;rounded=0;" edge="1" parent="1"><mxGeometry width="50" height="50" relative="1" as="geometry"><mxPoint x="625" y="940" as="sourcePoint"/><mxPoint x="770" y="940" as="targetPoint"/></mxGeometry></mxCell><mxCell id="52" value="" style="endArrow=classic;html=1;rounded=0;" edge="1" parent="1"><mxGeometry width="50" height="50" relative="1" as="geometry"><mxPoint x="625" y="940" as="sourcePoint"/><mxPoint x="624.66" y="1060" as="targetPoint"/></mxGeometry></mxCell><mxCell id="54" value="0" style="text;html=1;align=center;verticalAlign=middle;resizable=0;points=[];autosize=1;strokeColor=none;fillColor=none;" vertex="1" parent="1"><mxGeometry x="625" y="940" width="20" height="20" as="geometry"/></mxCell><mxCell id="55" value="z" style="text;html=1;align=center;verticalAlign=middle;resizable=0;points=[];autosize=1;strokeColor=none;fillColor=none;" vertex="1" parent="1"><mxGeometry x="625" y="1050" width="20" height="20" as="geometry"/></mxCell><mxCell id="56" value="x" style="text;html=1;align=center;verticalAlign=middle;resizable=0;points=[];autosize=1;strokeColor=none;fillColor=none;" vertex="1" parent="1"><mxGeometry x="760" y="940" width="20" height="20" as="geometry"/></mxCell><mxCell id="58" value="" style="endArrow=classic;html=1;rounded=0;" edge="1" parent="1"><mxGeometry width="50" height="50" relative="1" as="geometry"><mxPoint x="625" y="850" as="sourcePoint"/><mxPoint x="670" y="790" as="targetPoint"/></mxGeometry></mxCell><mxCell id="60" value="" style="endArrow=none;dashed=1;html=1;rounded=0;" edge="1" parent="1"><mxGeometry width="50" height="50" relative="1" as="geometry"><mxPoint x="540" y="940" as="sourcePoint"/><mxPoint x="625" y="850" as="targetPoint"/></mxGeometry></mxCell><mxCell id="61" value="" style="endArrow=classic;html=1;rounded=0;" edge="1" parent="1"><mxGeometry width="50" height="50" relative="1" as="geometry"><mxPoint x="625" y="850" as="sourcePoint"/><mxPoint x="580" y="790" as="targetPoint"/></mxGeometry></mxCell><mxCell id="62" value="" style="endArrow=none;dashed=1;html=1;rounded=0;" edge="1" parent="1"><mxGeometry width="50" height="50" relative="1" as="geometry"><mxPoint x="625" y="850" as="sourcePoint"/><mxPoint x="710" y="940" as="targetPoint"/></mxGeometry></mxCell><mxCell id="64" value="" style="endArrow=classic;html=1;rounded=0;" edge="1" parent="1"><mxGeometry width="50" height="50" relative="1" as="geometry"><mxPoint x="624.76" y="850" as="sourcePoint"/><mxPoint x="624.76" y="920" as="targetPoint"/></mxGeometry></mxCell><mxCell id="65" value="F&lt;font style=&quot;font-size: 8px&quot;&gt;mg&lt;/font&gt;" style="text;html=1;align=center;verticalAlign=middle;resizable=0;points=[];autosize=1;strokeColor=none;fillColor=none;" vertex="1" parent="1"><mxGeometry x="630" y="900" width="30" height="20" as="geometry"/></mxCell><mxCell id="66" value="F&lt;font style=&quot;font-size: 8px&quot;&gt;1&lt;/font&gt;&lt;span style=&quot;font-size: 6px&quot;&gt;em&lt;/span&gt;" style="text;html=1;align=center;verticalAlign=middle;resizable=0;points=[];autosize=1;strokeColor=none;fillColor=none;" vertex="1" parent="1"><mxGeometry x="665" y="790" width="40" height="20" as="geometry"/></mxCell><mxCell id="67" value="F&lt;font style=&quot;font-size: 8px&quot;&gt;2&lt;/font&gt;&lt;span style=&quot;font-size: 6px&quot;&gt;em&lt;/span&gt;" style="text;html=1;align=center;verticalAlign=middle;resizable=0;points=[];autosize=1;strokeColor=none;fillColor=none;" vertex="1" parent="1"><mxGeometry x="547" y="790" width="40" height="20" as="geometry"/></mxCell><mxCell id="68" value="" style="endArrow=none;dashed=1;html=1;rounded=0;" edge="1" parent="1"><mxGeometry width="50" height="50" relative="1" as="geometry"><mxPoint x="480" y="940" as="sourcePoint"/><mxPoint x="630" y="940" as="targetPoint"/></mxGeometry></mxCell><mxCell id="69" value="" style="endArrow=none;dashed=1;html=1;rounded=0;" edge="1" parent="1"><mxGeometry width="50" height="50" relative="1" as="geometry"><mxPoint x="625" y="940" as="sourcePoint"/><mxPoint x="625" y="780" as="targetPoint"/></mxGeometry></mxCell><mxCell id="72" value="" style="endArrow=none;dashed=1;html=1;rounded=0;" edge="1" parent="1"><mxGeometry width="50" height="50" relative="1" as="geometry"><mxPoint x="670" y="790" as="sourcePoint"/><mxPoint x="580" y="790" as="targetPoint"/></mxGeometry></mxCell><mxCell id="73" value="" style="endArrow=none;dashed=1;html=1;rounded=0;" edge="1" parent="1"><mxGeometry width="50" height="50" relative="1" as="geometry"><mxPoint x="480" y="850" as="sourcePoint"/><mxPoint x="770" y="850" as="targetPoint"/></mxGeometry></mxCell><mxCell id="74" value="" style="endArrow=none;dashed=1;html=1;rounded=0;" edge="1" parent="1"><mxGeometry width="50" height="50" relative="1" as="geometry"><mxPoint x="580" y="790" as="sourcePoint"/><mxPoint x="580" y="850" as="targetPoint"/></mxGeometry></mxCell><mxCell id="75" value="" style="endArrow=none;dashed=1;html=1;rounded=0;" edge="1" parent="1"><mxGeometry width="50" height="50" relative="1" as="geometry"><mxPoint x="670" y="850" as="sourcePoint"/><mxPoint x="670" y="790" as="targetPoint"/></mxGeometry></mxCell><mxCell id="76" value="" style="endArrow=classic;html=1;rounded=0;" edge="1" parent="1"><mxGeometry width="50" height="50" relative="1" as="geometry"><mxPoint x="625" y="850" as="sourcePoint"/><mxPoint x="670" y="850" as="targetPoint"/></mxGeometry></mxCell><mxCell id="77" value="" style="endArrow=classic;html=1;rounded=0;" edge="1" parent="1"><mxGeometry width="50" height="50" relative="1" as="geometry"><mxPoint x="625" y="850" as="sourcePoint"/><mxPoint x="580" y="850" as="targetPoint"/></mxGeometry></mxCell><mxCell id="78" value="" style="endArrow=classic;html=1;rounded=0;" edge="1" parent="1"><mxGeometry width="50" height="50" relative="1" as="geometry"><mxPoint x="625" y="850" as="sourcePoint"/><mxPoint x="625" y="790" as="targetPoint"/></mxGeometry></mxCell><mxCell id="79" value="F&lt;font style=&quot;font-size: 8px&quot;&gt;1x&lt;/font&gt;" style="text;html=1;align=center;verticalAlign=middle;resizable=0;points=[];autosize=1;strokeColor=none;fillColor=none;" vertex="1" parent="1"><mxGeometry x="665" y="860" width="30" height="20" as="geometry"/></mxCell><mxCell id="80" value="F&lt;font style=&quot;font-size: 8px&quot;&gt;2x&lt;/font&gt;" style="text;html=1;align=center;verticalAlign=middle;resizable=0;points=[];autosize=1;strokeColor=none;fillColor=none;" vertex="1" parent="1"><mxGeometry x="565" y="860" width="30" height="20" as="geometry"/></mxCell><mxCell id="81" value="F&lt;font style=&quot;font-size: 8px&quot;&gt;1z&lt;/font&gt;" style="text;html=1;align=center;verticalAlign=middle;resizable=0;points=[];autosize=1;strokeColor=none;fillColor=none;" vertex="1" parent="1"><mxGeometry x="625" y="790" width="30" height="20" as="geometry"/></mxCell><mxCell id="82" value="F&lt;font style=&quot;font-size: 8px&quot;&gt;2z&lt;/font&gt;" style="text;html=1;align=center;verticalAlign=middle;resizable=0;points=[];autosize=1;strokeColor=none;fillColor=none;" vertex="1" parent="1"><mxGeometry x="595" y="790" width="30" height="20" as="geometry"/></mxCell><mxCell id="83" value="" style="endArrow=none;dashed=1;html=1;rounded=0;fontSize=8;exitX=0;exitY=1;exitDx=0;exitDy=-15;exitPerimeter=0;" edge="1" parent="1" source="11"><mxGeometry width="50" height="50" relative="1" as="geometry"><mxPoint x="185" y="930" as="sourcePoint"/><mxPoint x="95" y="935" as="targetPoint"/></mxGeometry></mxCell><mxCell id="84" value="" style="endArrow=none;dashed=1;html=1;rounded=0;fontSize=8;exitX=1;exitY=1;exitDx=0;exitDy=-15;exitPerimeter=0;" edge="1" parent="1" source="11"><mxGeometry width="50" height="50" relative="1" as="geometry"><mxPoint x="185" y="930" as="sourcePoint"/><mxPoint x="410" y="935" as="targetPoint"/></mxGeometry></mxCell><mxCell id="85" value="" style="endArrow=none;dashed=1;html=1;rounded=0;fontSize=8;" edge="1" parent="1"><mxGeometry width="50" height="50" relative="1" as="geometry"><mxPoint x="249" y="930" as="sourcePoint"/><mxPoint x="249" y="850" as="targetPoint"/></mxGeometry></mxCell><mxCell id="86" value="" style="endArrow=none;dashed=1;html=1;rounded=0;fontSize=8;" edge="1" parent="1"><mxGeometry width="50" height="50" relative="1" as="geometry"><mxPoint x="249" y="1020" as="sourcePoint"/><mxPoint x="249" y="953" as="targetPoint"/></mxGeometry></mxCell><mxCell id="87" value="" style="endArrow=none;dashed=1;html=1;rounded=0;fontSize=8;" edge="1" parent="1"><mxGeometry width="50" height="50" relative="1" as="geometry"><mxPoint x="170" y="970" as="sourcePoint"/><mxPoint x="250" y="1020" as="targetPoint"/></mxGeometry></mxCell><mxCell id="88" value="" style="endArrow=none;dashed=1;html=1;rounded=0;fontSize=8;" edge="1" parent="1"><mxGeometry width="50" height="50" relative="1" as="geometry"><mxPoint x="250" y="1020" as="sourcePoint"/><mxPoint x="380" y="970" as="targetPoint"/></mxGeometry></mxCell><mxCell id="93" style="edgeStyle=orthogonalEdgeStyle;rounded=0;orthogonalLoop=1;jettySize=auto;html=1;exitX=1;exitY=0.5;exitDx=0;exitDy=0;exitPerimeter=0;entryX=0.165;entryY=1.031;entryDx=0;entryDy=0;entryPerimeter=0;fontSize=8;endArrow=oval;endFill=1;" edge="1" parent="1" source="91" target="d11YgbMuLY9UXbhdKkSf-29"><mxGeometry relative="1" as="geometry"/></mxCell><mxCell id="91" value="" style="pointerEvents=1;verticalLabelPosition=bottom;shadow=0;dashed=0;align=center;html=1;verticalAlign=top;shape=mxgraph.electrical.diodes.zener_diode_2;fontSize=8;direction=north;" vertex="1" parent="1"><mxGeometry x="470" y="630" width="20" height="30" as="geometry"/></mxCell><mxCell id="95" style="edgeStyle=orthogonalEdgeStyle;rounded=0;orthogonalLoop=1;jettySize=auto;html=1;entryX=0;entryY=0.5;entryDx=0;entryDy=0;entryPerimeter=0;fontSize=8;endArrow=none;endFill=0;" edge="1" parent="1" source="94" target="91"><mxGeometry relative="1" as="geometry"/></mxCell><mxCell id="94" value="" style="pointerEvents=1;verticalLabelPosition=bottom;shadow=0;dashed=0;align=center;html=1;verticalAlign=top;shape=stencil(nZPNboMwEISfxtcI2W2jHCP6c+slT7Ahm2DFrJHtJs3b1/GCEkNAbSUu+w2MZwcQqvQ1tChkAb7FKgj1KqQ8gdOwNRHLqNQMXwoeCRpkstEHAhPRh7NftGPZB2ePeNa70D2nqUanA6tnZqvkpd5EsY7weqmyskQxgbbkM+VOj96gKWQhPtm4jWc0GNAx7bJ+d9PimedLpgr5PsgQyVQMVW6hOh5400f5WrhuPBJ6ubEnvCXqI1zycZgotzCa7iyW/7GojPU4eVcqYLRHohPLq3JvHc60stfG8Ccxc+qfqnv61buca27gMG/xuJNem1wtPTbqJlH+4xL4AQ==);direction=east;" vertex="1" parent="1"><mxGeometry x="457.5" y="690" width="45" height="30" as="geometry"/></mxCell></root></mxGraphModel></diagram></mxfile>